<?xml version="1.0" encoding="UTF-8"?> <svg xmlns="http://www.w3.org/2000/svg" width="181" height="76" viewBox="0 0 181 76" fill="none"> <path d="M23.3331 54.7073C20.4117 54.7073 17.6421 54.1382 15.0242 53C12.4064 51.8239 10.111 50.2493 8.13813 48.2765C6.16525 46.3036 4.59074 44.0082 3.4146 41.3904C2.2764 38.7725 1.7073 36.0029 1.7073 33.0815C1.7073 30.1601 2.2764 27.3905 3.4146 24.7726C4.59074 22.1548 6.16525 19.8594 8.13813 17.8865C10.111 15.9136 12.4064 14.3581 15.0242 13.2199C17.6421 12.0438 20.4117 11.4557 23.3331 11.4557C25.8751 11.4557 28.1894 11.8351 30.2761 12.5939C32.4008 13.3527 34.2409 14.3581 35.7964 15.6101C37.3899 16.8242 38.7178 18.247 39.7801 19.8784C40.8424 21.4719 41.6202 23.1222 42.1134 24.8295L33.2924 25.9677C32.875 25.1331 32.3439 24.3174 31.6989 23.5206C31.0918 22.7239 30.371 22.022 29.5363 21.4149C28.7016 20.8079 27.7531 20.3337 26.6908 19.9922C25.6285 19.6128 24.4144 19.4231 23.0486 19.4231C21.4171 19.4231 19.8426 19.7835 18.325 20.5044C16.8074 21.1873 15.4606 22.1548 14.2844 23.4068C13.1462 24.6209 12.2357 26.0626 11.5527 27.732C10.8698 29.3634 10.5284 31.1466 10.5284 33.0815C10.5284 35.0164 10.8698 36.8186 11.5527 38.4879C12.2357 40.1194 13.1462 41.5611 14.2844 42.8131C15.4606 44.0272 16.8074 44.9947 18.325 45.7155C19.8426 46.3984 21.4171 46.7399 23.0486 46.7399C24.5282 46.7399 25.8561 46.5502 27.0323 46.1708C28.2463 45.7535 29.3087 45.2033 30.2192 44.5204C31.1677 43.8375 31.9834 43.0597 32.6663 42.1871C33.3493 41.2765 33.9373 40.328 34.4306 39.3416L43.2516 40.4798C42.7584 42.263 41.9427 44.0082 40.8045 45.7155C39.7042 47.4228 38.3004 48.9404 36.5931 50.2683C34.9238 51.5962 32.9699 52.6585 30.7314 53.4553C28.4929 54.29 26.0268 54.7073 23.3331 54.7073ZM73.6571 37.8619C74.2641 36.3823 74.5677 34.7888 74.5677 33.0815C74.5677 31.3742 74.2641 29.7997 73.6571 28.358C73.0501 26.8783 72.1964 25.6073 71.0962 24.545C70.0338 23.4827 68.7439 22.648 67.2263 22.041C65.7466 21.4339 64.1152 21.1304 62.332 21.1304H56.641V45.0326H62.332C64.1152 45.0326 65.7466 44.7291 67.2263 44.122C68.7439 43.515 70.0338 42.6803 71.0962 41.618C72.1964 40.5557 73.0501 39.3037 73.6571 37.8619ZM81.7952 25.2848C82.8576 27.713 83.3887 30.3119 83.3887 33.0815C83.3887 35.8511 82.8576 38.45 81.7952 40.8782C80.7709 43.3063 79.3102 45.412 77.4132 47.1952C75.5541 48.9784 73.3346 50.4011 70.7547 51.4634C68.2127 52.4878 65.4052 53 62.332 53H47.82V13.163H62.332C65.4052 13.163 68.2127 13.6942 70.7547 14.7565C73.3346 15.7809 75.5541 17.1846 77.4132 18.9678C79.3102 20.751 80.7709 22.8567 81.7952 25.2848Z" fill="white"></path> <path d="M102.948 30.5084C102.078 30.5084 101.253 30.3389 100.474 30C99.6941 29.6498 99.0107 29.181 98.4232 28.5935C97.8358 28.0061 97.3669 27.3226 97.0167 26.5431C96.6778 25.7636 96.5084 24.9389 96.5084 24.0691C96.5084 23.1992 96.6778 22.3745 97.0167 21.595C97.3669 20.8155 97.8358 20.132 98.4232 19.5446C99.0107 18.9571 99.6941 18.494 100.474 18.155C101.253 17.8048 102.078 17.6297 102.948 17.6297C103.705 17.6297 104.394 17.7427 105.015 17.9686C105.648 18.1946 106.196 18.494 106.659 18.8668C107.133 19.2283 107.529 19.6519 107.845 20.1377C108.161 20.6122 108.393 21.1036 108.54 21.6119L105.913 21.9509C105.789 21.7023 105.631 21.4594 105.439 21.2222C105.258 20.985 105.043 20.776 104.795 20.5952C104.546 20.4145 104.264 20.2732 103.947 20.1716C103.631 20.0586 103.27 20.0021 102.863 20.0021C102.377 20.0021 101.908 20.1094 101.456 20.3241C101.005 20.5274 100.604 20.8155 100.253 21.1883C99.9144 21.5498 99.6433 21.9791 99.44 22.4762C99.2366 22.9619 99.1349 23.4929 99.1349 24.0691C99.1349 24.6452 99.2366 25.1818 99.44 25.6789C99.6433 26.1647 99.9144 26.5939 100.253 26.9667C100.604 27.3282 101.005 27.6163 101.456 27.831C101.908 28.0343 102.377 28.136 102.863 28.136C103.304 28.136 103.699 28.0795 104.049 27.9665C104.411 27.8423 104.727 27.6785 104.998 27.4751C105.281 27.2718 105.523 27.0402 105.727 26.7803C105.93 26.5092 106.105 26.2268 106.252 25.9331L108.879 26.272C108.732 26.8029 108.489 27.3226 108.15 27.831C107.822 28.3393 107.404 28.7912 106.896 29.1866C106.399 29.582 105.817 29.8983 105.151 30.1356C104.484 30.3841 103.75 30.5084 102.948 30.5084ZM112.865 26.4414V30H110.239V18.1381H116.085C116.786 18.1381 117.418 18.2454 117.983 18.4601C118.548 18.6634 119.028 18.9515 119.423 19.3243C119.819 19.6971 120.124 20.1377 120.338 20.646C120.553 21.1544 120.66 21.7023 120.66 22.2898C120.66 22.64 120.627 22.9619 120.559 23.2557C120.491 23.5381 120.401 23.7979 120.288 24.0352C120.186 24.2724 120.067 24.487 119.932 24.6791C119.796 24.8598 119.655 25.018 119.508 25.1536C119.169 25.4812 118.791 25.741 118.373 25.9331L120.576 30H117.78C117.452 29.39 117.124 28.7969 116.797 28.2207C116.481 27.6446 116.159 27.0515 115.831 26.4414H112.865ZM116.085 24.0691C116.684 24.0691 117.158 23.8996 117.509 23.5607C117.859 23.2218 118.034 22.7981 118.034 22.2898C118.034 21.7814 117.859 21.3578 117.509 21.0188C117.158 20.6799 116.684 20.5105 116.085 20.5105H112.865V24.0691H116.085ZM131.757 27.6276V30H122.352V18.1381H131.757V20.5105H124.979V22.8829H130.317V25.2552H124.979V27.6276H131.757ZM135.142 18.1381H141.158L144.039 30H141.327L140.734 27.5429H135.566L134.973 30H132.262L135.142 18.1381ZM136.159 25.1705H140.141L139.04 20.5105H137.26L136.159 25.1705ZM143.183 20.5105V18.1381H153.266V20.5105H149.538V30H146.911V20.5105H143.183ZM157.083 30H154.456V18.1381H157.083V30ZM158.36 18.1381H161.072L163.359 27.6276H164.969L167.257 18.1381H169.968L167.087 30H161.241L158.36 18.1381ZM180.641 27.6276V30H171.236V18.1381H180.641V20.5105H173.863V22.8829H179.201V25.2552H173.863V27.6276H180.641ZM104.71 48.4925C104.891 48.0519 104.981 47.5774 104.981 47.0691C104.981 46.5607 104.891 46.0919 104.71 45.6626C104.529 45.222 104.275 44.8435 103.947 44.5272C103.631 44.2109 103.247 43.9624 102.795 43.7816C102.355 43.6009 101.869 43.5105 101.338 43.5105H99.6433V50.6276H101.338C101.869 50.6276 102.355 50.5372 102.795 50.3565C103.247 50.1757 103.631 49.9272 103.947 49.6109C104.275 49.2946 104.529 48.9218 104.71 48.4925ZM107.133 44.7475C107.45 45.4705 107.608 46.2444 107.608 47.0691C107.608 47.8937 107.45 48.6676 107.133 49.3906C106.828 50.1136 106.393 50.7406 105.828 51.2716C105.275 51.8025 104.614 52.2262 103.846 52.5425C103.089 52.8475 102.253 53 101.338 53H97.0167V41.1381H101.338C102.253 41.1381 103.089 41.2963 103.846 41.6126C104.614 41.9176 105.275 42.3356 105.828 42.8666C106.393 43.3975 106.828 44.0245 107.133 44.7475ZM118.535 50.6276V53H109.13V41.1381H118.535V43.5105H111.757V45.8829H117.095V48.2552H111.757V50.6276H118.535ZM127.682 46.3234C127.795 46.0749 127.851 45.8151 127.851 45.544C127.851 45.2728 127.795 45.013 127.682 44.7645C127.569 44.5159 127.41 44.3013 127.207 44.1205C127.015 43.9285 126.778 43.7816 126.495 43.6799C126.213 43.567 125.902 43.5105 125.563 43.5105H122.513V47.5774H125.563C125.902 47.5774 126.213 47.5266 126.495 47.4249C126.778 47.3119 127.015 47.1651 127.207 46.9843C127.41 46.7923 127.569 46.572 127.682 46.3234ZM130.122 43.8324C130.359 44.3634 130.478 44.9339 130.478 45.544C130.478 46.154 130.359 46.7301 130.122 47.2724C129.896 47.8034 129.568 48.2722 129.139 48.6789C128.71 49.0743 128.19 49.3849 127.58 49.6109C126.981 49.8368 126.309 49.9498 125.563 49.9498H122.513V53H119.887V41.1381H125.563C126.309 41.1381 126.981 41.2511 127.58 41.477C128.19 41.703 128.71 42.0193 129.139 42.426C129.568 42.8214 129.896 43.2902 130.122 43.8324ZM134.423 45.4762C134.22 45.9619 134.118 46.4929 134.118 47.0691C134.118 47.6452 134.22 48.1818 134.423 48.6789C134.638 49.1647 134.92 49.5939 135.271 49.9667C135.632 50.3282 136.044 50.6163 136.508 50.831C136.982 51.0343 137.485 51.136 138.016 51.136C138.547 51.136 139.044 51.0343 139.507 50.831C139.981 50.6163 140.394 50.3282 140.744 49.9667C141.105 49.5939 141.388 49.1647 141.591 48.6789C141.806 48.1818 141.913 47.6452 141.913 47.0691C141.913 46.4929 141.806 45.9619 141.591 45.4762C141.388 44.9791 141.105 44.5498 140.744 44.1883C140.394 43.8155 139.981 43.5274 139.507 43.3241C139.044 43.1094 138.547 43.0021 138.016 43.0021C137.485 43.0021 136.982 43.1094 136.508 43.3241C136.044 43.5274 135.632 43.8155 135.271 44.1883C134.92 44.5498 134.638 44.9791 134.423 45.4762ZM144.031 44.5611C144.37 45.3406 144.54 46.1766 144.54 47.0691C144.54 47.9615 144.37 48.7975 144.031 49.577C143.693 50.3565 143.229 51.04 142.642 51.6274C142.054 52.2036 141.365 52.6611 140.575 53C139.784 53.3389 138.931 53.5084 138.016 53.5084C137.101 53.5084 136.248 53.3389 135.457 53C134.666 52.6611 133.977 52.2036 133.39 51.6274C132.802 51.04 132.339 50.3565 132 49.577C131.661 48.7975 131.492 47.9615 131.492 47.0691C131.492 46.1766 131.661 45.3406 132 44.5611C132.339 43.7816 132.802 43.1038 133.39 42.5276C133.977 41.9402 134.666 41.477 135.457 41.1381C136.248 40.7992 137.101 40.6297 138.016 40.6297C138.931 40.6297 139.784 40.7992 140.575 41.1381C141.365 41.477 142.054 41.9402 142.642 42.5276C143.229 43.1038 143.693 43.7816 144.031 44.5611Z" fill="white"></path> </svg> 